<?xml version="1.0" standalone="no"?>
<!DOCTYPE svg PUBLIC "-//W3C//DTD SVG 20010904//EN"
 "http://www.w3.org/TR/2001/REC-SVG-20010904/DTD/svg10.dtd">
<svg version="1.0" xmlns="http://www.w3.org/2000/svg"
 width="1611.000000pt" height="1611.000000pt" viewBox="0 0 1611.000000 1611.000000"
 preserveAspectRatio="xMidYMid meet">
<metadata>
Created by potrace 1.14, written by Peter Selinger 2001-2017
</metadata>
<g transform="translate(0.000000,1611.000000) scale(0.100000,-0.100000)"
fill="#000000" stroke="none">
<path d="M7545 16099 c-1826 -114 -3555 -848 -4920 -2089 -634 -577 -1191
-1280 -1619 -2045 -92 -163 -280 -546 -361 -734 -360 -838 -578 -1759 -635
-2691 -13 -214 -13 -770 0 -975 93 -1450 548 -2801 1344 -3990 650 -969 1527
-1810 2511 -2407 1057 -641 2182 -1014 3431 -1139 264 -26 978 -38 1251 -20
1232 79 2382 416 3440 1007 1291 721 2386 1816 3107 3107 591 1058 928 2208
1007 3439 18 274 6 990 -20 1252 -125 1251 -498 2374 -1139 3431 -387 638
-910 1270 -1472 1780 -1367 1238 -3071 1956 -4925 2075 -183 12 -807 11 -1000
-1z m1200 -203 c384 -38 687 -85 1013 -157 1767 -389 3356 -1388 4483 -2819
946 -1200 1511 -2622 1654 -4158 15 -166 40 -715 33 -748 -3 -16 -128 -43
-958 -209 l-955 -191 0 405 c0 522 -24 778 -115 1231 -391 1945 -1758 3587
-3609 4336 -1416 573 -3034 577 -4445 10 -770 -310 -1418 -738 -2007 -1326
-357 -357 -645 -725 -901 -1150 -573 -952 -874 -2084 -844 -3175 4 -132 9
-261 13 -286 l5 -46 -961 191 -961 191 0 200 c1 628 108 1363 297 2020 287
1005 777 1952 1427 2760 299 373 687 771 1056 1086 373 318 850 647 1285 886
1015 559 2105 878 3290 963 196 14 1014 4 1200 -14z m-300 -2096 c1018 -73
1963 -395 2805 -955 1310 -870 2217 -2265 2480 -3810 60 -354 80 -599 80 -980
0 -371 -20 -623 -76 -960 -352 -2110 -1869 -3863 -3915 -4523 -378 -122 -743
-199 -1179 -248 -196 -22 -767 -30 -983 -15 -1003 73 -1944 392 -2767 936
-1417 936 -2342 2427 -2549 4105 -34 272 -44 491 -38 818 6 318 13 412 48 667
289 2112 1720 3890 3724 4628 460 169 996 288 1470 327 72 5 148 12 170 13 99
8 603 6 730 -3z m-7276 -6178 l985 -198 17 -134 c201 -1582 1046 -3026 2334
-3990 573 -429 1213 -748 1895 -945 1228 -354 2545 -305 3735 140 1925 720
3353 2404 3744 4415 26 135 65 387 73 474 2 16 10 33 18 37 17 9 1962 400
1967 396 1 -2 -2 -79 -7 -173 -63 -1086 -315 -2071 -774 -3019 -1144 -2362
-3387 -4005 -5973 -4374 -690 -99 -1429 -106 -2108 -20 -2065 260 -3927 1313
-5216 2949 -776 985 -1300 2129 -1543 3365 -66 336 -120 776 -131 1070 -3 83
-8 162 -10 178 -3 15 -1 27 3 27 4 -1 450 -90 991 -198z"/>
<path d="M8867 15488 c-97 -176 -588 -1110 -585 -1112 1 -2 91 -14 199 -27
l196 -25 42 98 43 97 41 -5 c23 -3 118 -16 212 -28 l169 -22 18 -103 c9 -57
18 -104 20 -106 2 -1 82 -12 178 -24 96 -12 185 -24 198 -27 16 -3 22 0 22 13
0 24 -292 1266 -299 1275 -5 6 -370 58 -407 58 -7 0 -28 -28 -47 -62z m235
-525 c19 -115 34 -209 33 -210 -1 -2 -58 5 -127 15 l-125 17 86 192 c47 106
89 193 92 193 3 0 21 -93 41 -207z"/>
<path d="M6565 15471 c-44 -9 -191 -44 -327 -77 -187 -44 -248 -63 -248 -74 0
-14 280 -1192 285 -1198 1 -1 143 31 314 73 239 57 332 84 397 114 228 107
325 310 280 586 -52 317 -199 525 -411 581 -68 18 -193 16 -290 -5z m105 -302
c28 -6 65 -23 82 -37 65 -55 131 -252 132 -392 1 -93 -22 -145 -80 -177 -52
-29 -202 -69 -213 -57 -12 14 -153 613 -148 628 3 7 31 18 64 24 32 6 67 13
78 16 11 2 23 4 27 5 4 0 30 -4 58 -10z"/>
<path d="M10844 14403 c-280 -513 -296 -547 -279 -559 28 -20 312 -174 322
-174 4 0 60 95 123 212 64 116 121 213 127 215 22 8 84 -60 93 -102 5 -22 10
-149 10 -281 l0 -242 186 -101 c103 -56 190 -99 193 -95 3 3 8 103 9 222 4
251 -6 332 -47 389 l-28 38 106 0 c98 0 110 2 159 29 67 38 126 102 160 174
23 49 27 70 27 147 0 81 -3 95 -30 144 -30 54 -96 117 -174 165 -24 15 -179
102 -345 193 -165 91 -304 167 -307 169 -4 2 -141 -242 -305 -543z m738 -5
c42 -42 49 -78 23 -128 -31 -60 -82 -74 -169 -44 -70 24 -181 89 -178 103 1 7
26 55 54 107 l51 93 90 -47 c50 -26 107 -64 129 -84z"/>
<path d="M4445 14690 c-77 -49 -144 -91 -150 -93 -5 -2 67 -127 161 -278 201
-322 190 -304 177 -296 -6 4 -174 79 -373 166 l-361 160 -154 -96 c-147 -92
-154 -97 -142 -118 7 -12 154 -250 327 -528 227 -364 319 -505 330 -501 19 7
271 163 288 179 14 12 10 19 -289 496 l-48 77 137 -60 c75 -33 238 -105 362
-159 124 -54 230 -99 237 -99 10 0 294 169 312 186 7 6 -652 1054 -663 1053
-6 0 -74 -40 -151 -89z"/>
<path d="M12822 13138 c-265 -211 -479 -388 -477 -395 5 -16 186 -243 194
-243 3 0 158 122 344 271 187 149 340 269 342 267 1 -2 -120 -165 -271 -363
-152 -201 -269 -364 -265 -370 42 -56 173 -215 178 -215 3 0 186 81 407 181
220 100 408 183 416 187 8 3 -138 -117 -325 -267 -187 -150 -344 -276 -348
-280 -7 -7 159 -226 187 -245 15 -10 972 748 970 769 -1 10 -252 332 -298 383
-9 10 -82 -19 -345 -138 -183 -83 -338 -153 -344 -157 -6 -4 -7 -1 -2 8 7 11
397 535 437 585 5 7 -47 80 -147 205 -85 107 -159 195 -163 197 -5 1 -225
-170 -490 -380z"/>
<path d="M2140 12684 c-69 -90 -125 -168 -125 -172 0 -18 691 -1121 700 -1119
6 2 63 71 127 154 l117 151 -60 81 c-32 45 -59 86 -59 91 0 6 57 84 126 175
l127 164 66 -26 c109 -42 131 -47 141 -37 36 36 238 310 232 315 -5 4 -1104
341 -1257 385 -5 2 -66 -71 -135 -162z m490 -299 c102 -38 186 -69 188 -71 5
-3 -145 -195 -153 -195 -8 -1 -245 327 -245 337 0 4 6 4 13 1 6 -2 95 -35 197
-72z"/>
<path d="M13963 10853 c-172 -2 -313 -4 -313 -6 0 -1 31 -83 69 -182 l68 -180
109 3 109 3 70 -187 c39 -103 71 -192 73 -199 1 -6 -33 -39 -78 -73 -44 -35
-80 -68 -80 -75 1 -21 138 -372 144 -370 9 2 983 861 990 871 3 5 -28 96 -69
203 l-73 194 -354 0 c-194 0 -494 -1 -665 -2z m757 -317 c0 -2 -48 -41 -107
-87 -60 -46 -135 -105 -169 -130 l-60 -48 -43 115 c-24 63 -41 117 -37 121 9
9 416 38 416 29z"/>
<path d="M1090 10787 c0 -2 -25 -86 -55 -187 -30 -101 -54 -184 -52 -185 1 -1
173 -52 382 -114 410 -122 451 -136 490 -175 44 -44 27 -138 -30 -164 -32 -15
-88 -15 -134 -2 -19 5 -36 8 -39 6 -7 -7 -61 -370 -56 -376 3 -3 63 -5 132 -5
119 0 131 2 189 29 113 52 191 157 247 334 63 201 33 376 -86 488 -89 84 -152
110 -619 248 -349 104 -369 109 -369 103z"/>
<path d="M6937 13274 c-30 -124 -59 -229 -64 -233 -4 -4 -106 -38 -225 -76
-120 -38 -218 -71 -218 -74 1 -3 91 -62 200 -131 l200 -125 0 -237 c0 -131 3
-238 6 -238 5 0 273 216 354 286 13 11 50 2 230 -57 118 -38 220 -68 227 -67
8 2 -18 79 -74 220 l-86 217 137 192 c75 105 135 193 133 196 -5 4 -321 -12
-423 -22 l-50 -5 -140 190 c-76 104 -142 189 -146 190 -3 0 -31 -102 -61 -226z"/>
<path d="M9004 13310 l-139 -189 -50 4 c-119 11 -417 26 -422 21 -3 -3 56 -91
131 -196 l136 -190 -85 -216 c-47 -119 -83 -219 -80 -222 3 -3 105 27 226 66
l222 71 181 -149 c99 -83 184 -150 189 -150 5 0 6 105 2 233 l-8 234 194 123
c107 67 200 128 207 134 10 9 -36 27 -205 80 -120 38 -223 72 -229 77 -5 5
-35 110 -64 234 -30 124 -57 225 -60 225 -3 0 -69 -85 -146 -190z"/>
<path d="M10955 12808 c-44 -38 -124 -108 -177 -154 l-97 -85 -226 62 c-124
34 -228 59 -230 57 -3 -3 37 -101 88 -219 l94 -214 -129 -193 c-71 -107 -127
-196 -124 -200 3 -3 110 5 236 18 210 21 232 22 243 7 125 -162 283 -354 288
-349 3 4 27 108 53 231 25 124 47 225 49 226 1 1 102 39 225 85 122 45 222 84
222 86 0 1 -92 55 -204 119 l-203 116 -6 97 c-4 53 -7 149 -8 212 -1 63 -4
127 -8 142 -6 26 -6 26 -86 -44z"/>
<path d="M5066 12802 c-3 -37 -6 -114 -6 -172 0 -58 -3 -135 -6 -172 l-7 -67
-204 -117 c-112 -64 -203 -117 -201 -119 2 -2 102 -40 223 -85 121 -46 222
-84 224 -86 2 -2 23 -99 47 -216 24 -117 47 -221 52 -231 5 -14 36 19 147 159
77 98 143 182 147 187 4 7 83 3 237 -13 127 -13 234 -21 237 -18 3 3 -51 92
-121 197 -69 106 -125 196 -125 201 0 5 41 102 90 215 50 114 88 210 85 213
-3 3 -107 -23 -230 -57 l-226 -62 -157 138 c-224 198 -198 185 -206 105z"/>
<path d="M7763 11959 c-41 -12 -46 -21 -32 -55 11 -29 42 -195 37 -198 -2 -1
-16 -7 -31 -14 -38 -17 -61 -73 -54 -134 4 -31 2 -48 -4 -48 -27 0 -81 -35
-94 -61 -19 -37 -19 -93 0 -109 23 -19 54 -64 70 -103 l14 -35 -67 34 c-37 19
-84 37 -104 41 l-38 6 0 -80 c0 -127 33 -223 94 -276 12 -10 42 -29 68 -41
l47 -23 -29 -16 c-40 -24 -63 -79 -58 -139 9 -92 68 -138 176 -138 34 0 62 -3
62 -7 0 -5 -18 -71 -40 -148 -78 -269 -94 -368 -94 -570 0 -186 16 -330 54
-493 11 -46 20 -88 20 -93 0 -5 -300 -9 -750 -9 l-750 0 0 -122 c0 -95 -9
-181 -40 -373 -22 -137 -42 -260 -45 -273 l-5 -22 -50 25 c-58 29 -77 31 -109
9 -32 -23 -120 -12 -245 32 -106 36 -145 41 -164 22 -9 -9 -12 -7 -12 10 0 17
-9 24 -45 33 -25 6 -67 28 -93 48 -26 21 -61 43 -78 50 -17 7 -52 34 -78 60
-43 44 -49 54 -55 110 -4 34 -13 67 -19 73 -18 18 -15 33 3 18 25 -20 30 -3
14 43 l-16 42 -97 0 -98 0 -34 47 -35 46 -57 -5 c-31 -3 -68 -14 -82 -23 -19
-13 -38 -17 -70 -13 -41 4 -48 2 -79 -31 -19 -20 -43 -36 -52 -36 -9 0 -27 -8
-39 -18 -22 -18 -22 -19 -6 -50 9 -18 21 -32 27 -32 15 0 39 -64 39 -102 0
-45 -23 -74 -64 -82 -58 -11 -86 -41 -86 -91 0 -32 -7 -51 -25 -73 -14 -17
-25 -37 -25 -45 0 -9 -19 -26 -42 -39 -44 -24 -61 -59 -39 -81 5 -5 72 -15
147 -21 80 -6 139 -16 141 -22 4 -11 -59 -34 -94 -34 -17 0 -96 -32 -143 -59
-8 -4 -18 -23 -21 -42 -3 -19 -16 -50 -28 -71 -24 -40 -13 -62 18 -34 10 9 22
16 27 16 5 0 16 12 25 28 8 15 29 34 45 42 16 8 49 28 74 44 25 17 39 23 32
14 -7 -9 -42 -35 -77 -58 -36 -23 -74 -57 -86 -76 -17 -28 -27 -34 -54 -34
-31 0 -34 -4 -49 -47 -9 -26 -16 -65 -16 -87 0 -28 -8 -54 -25 -78 -30 -44
-31 -58 -6 -58 11 0 23 -5 26 -10 3 -6 16 -8 28 -5 12 2 81 7 152 9 l130 5
-40 -36 c-22 -19 -59 -48 -82 -63 -42 -27 -45 -44 -8 -52 13 -2 20 -11 20 -25
0 -12 11 -32 25 -45 19 -18 21 -23 9 -26 -20 -4 -44 -46 -35 -61 4 -6 25 -16
46 -22 48 -14 51 -27 10 -35 -20 -4 -30 -13 -30 -24 0 -14 -8 -17 -37 -16 -33
1 -38 -2 -41 -23 -5 -35 7 -71 23 -71 10 0 15 -11 15 -34 0 -40 13 -53 60 -59
24 -2 16 -4 -24 -5 -43 -2 -65 3 -78 14 -14 14 -20 14 -33 4 -13 -11 -15 -7
-15 25 0 62 -20 115 -47 121 -37 10 -53 -12 -53 -72 0 -47 2 -54 20 -54 18 0
19 -2 8 -20 -10 -15 -20 -19 -40 -15 -17 4 -33 0 -47 -11 l-21 -18 22 -23 c12
-13 27 -23 35 -23 7 0 29 -18 49 -40 42 -47 51 -49 60 -15 7 30 51 35 61 8 3
-10 13 -26 22 -37 9 -10 14 -21 11 -24 -3 -3 11 -10 30 -17 43 -14 82 -81 78
-135 -3 -35 -3 -35 -55 -38 -66 -4 -71 -26 -13 -50 29 -12 38 -21 33 -32 -9
-22 -4 -113 8 -125 6 -6 16 -5 29 3 26 16 31 15 24 -3 -4 -8 1 -17 9 -21 9 -3
13 -13 9 -26 -5 -19 -2 -21 29 -15 29 6 31 5 18 -6 -9 -7 -18 -21 -21 -32 -4
-23 -32 -22 -55 1 -46 45 -99 -37 -59 -91 14 -19 15 -19 35 -1 21 19 22 19 35
1 12 -17 31 -19 177 -21 90 -2 166 -3 169 -4 5 0 -8 -6 -94 -44 -31 -13 -37
-21 -33 -37 5 -18 2 -20 -21 -16 -111 23 -136 26 -149 15 -8 -6 -29 -8 -50 -5
-41 7 -63 -5 -63 -34 0 -31 73 -41 176 -24 35 6 48 3 85 -22 l43 -28 -33 -5
c-42 -7 -45 -24 -4 -28 23 -2 46 7 87 34 47 31 54 39 44 52 -11 13 -10 14 10
8 25 -8 65 1 57 14 -3 5 -1 11 5 15 5 3 14 -5 19 -19 8 -18 15 -23 31 -19 18
5 20 2 15 -19 -5 -18 -2 -27 10 -32 9 -3 21 -4 25 -1 5 3 19 -8 31 -25 26 -34
59 -40 59 -11 0 28 10 31 48 16 36 -16 43 -35 12 -35 -15 0 -20 -7 -20 -25 0
-16 6 -25 15 -25 13 0 15 -7 9 -35 -6 -32 -1 -40 46 -95 71 -82 116 -105 205
-104 47 0 81 6 103 18 19 10 36 16 38 14 2 -2 -15 -75 -38 -161 -34 -132 -44
-157 -59 -157 -17 0 -19 -9 -19 -105 l0 -105 49 0 49 0 48 -67 c63 -89 192
-218 273 -272 307 -208 660 -211 960 -9 70 47 210 195 261 276 l45 71 51 0 51
1 7 46 c3 26 6 73 6 105 l0 58 -47 3 -47 3 -12 75 c-12 85 -16 79 71 126 28
15 95 70 149 121 55 51 119 105 143 119 l44 26 32 -25 c18 -13 51 -34 75 -46
l42 -21 0 -262 0 -261 125 -615 c69 -338 125 -616 125 -618 0 -2 7 -4 15 -4
18 0 2 -71 145 638 78 387 120 614 120 656 0 34 3 97 6 139 8 86 11 89 74 57
22 -11 47 -20 56 -20 25 0 11 52 -28 106 -28 40 -31 48 -19 66 7 11 17 48 21
81 5 33 16 67 24 76 14 13 21 13 73 -8 32 -13 69 -36 83 -51 33 -37 68 -50
137 -50 40 0 62 5 80 20 35 27 55 26 49 -2 -3 -13 -15 -84 -26 -158 -29 -192
-24 -180 -66 -180 -33 0 -36 -2 -30 -22 3 -13 6 -58 6 -100 l0 -78 53 0 52 0
47 -73 c134 -205 330 -353 543 -408 111 -29 280 -28 390 0 209 55 407 195 551
391 l59 80 53 0 52 0 0 110 0 110 -35 0 c-19 0 -35 3 -35 6 0 7 -109 483 -117
508 -3 12 -1 16 6 12 16 -10 186 11 243 30 26 8 74 33 108 55 33 21 67 39 74
39 7 0 27 -18 45 -40 46 -57 69 -54 140 20 42 44 63 59 75 54 10 -4 35 -1 57
6 43 15 110 5 204 -30 28 -10 77 -20 110 -23 55 -4 63 -2 93 24 37 32 69 36
112 14 35 -18 37 -33 10 -77 -24 -39 -26 -66 -5 -75 14 -5 116 58 154 95 9 9
25 12 47 8 31 -6 64 11 64 34 0 24 -25 58 -65 88 -24 19 -47 42 -50 53 -4 10
1 44 10 75 19 65 12 80 -29 64 -39 -14 -41 -14 -81 21 -63 55 -63 60 -10 170
26 54 44 102 41 108 -3 5 -20 12 -36 16 -20 4 -32 14 -34 28 -8 40 -18 111
-25 182 -5 53 -18 93 -54 169 -26 54 -47 110 -47 123 0 23 1 23 64 17 76 -8
79 -4 96 102 10 64 23 94 40 94 4 0 21 -14 39 -30 32 -31 51 -32 51 -3 0 9
-41 56 -92 105 -97 93 -121 104 -166 73 -16 -12 -27 -13 -41 -5 -11 5 -33 10
-50 10 -16 0 -33 5 -36 10 -3 6 -23 10 -44 10 -37 0 -39 1 -45 42 -4 23 -14
50 -22 59 -9 10 -18 36 -20 58 -4 35 1 51 31 99 19 32 35 63 35 71 0 7 -14 39
-31 71 -21 39 -40 61 -62 71 -24 11 -34 23 -40 52 -10 41 -11 42 -71 52 -29 5
-36 9 -27 18 19 19 12 36 -16 43 -16 4 -46 22 -69 41 -23 18 -48 33 -57 33
-11 0 -16 7 -14 23 2 20 -3 22 -51 25 -52 3 -53 3 -68 -35 -9 -21 -17 -39 -19
-41 -2 -2 -42 6 -90 17 l-87 21 -44 -22 c-42 -21 -46 -21 -77 -5 -17 9 -40 23
-50 29 -16 11 -22 9 -45 -18 -51 -60 -166 -154 -201 -165 -20 -7 -48 -20 -63
-30 -14 -11 -31 -19 -38 -19 -6 0 -55 -21 -107 -46 -85 -41 -100 -46 -132 -38
l-36 9 -82 400 c-79 385 -82 405 -83 538 l0 137 -681 0 -681 0 7 28 c22 88 55
284 66 392 23 244 -2 449 -91 753 -22 76 -40 140 -40 142 0 3 23 5 50 5 62 0
110 19 138 55 18 22 22 41 22 96 0 62 -3 71 -31 104 -17 19 -37 35 -45 35 -27
0 -13 15 34 37 103 47 174 134 192 236 13 66 -1 167 -32 239 -20 47 -38 63
-38 33 0 -28 -38 -92 -72 -120 -37 -31 -115 -68 -167 -80 -31 -7 -33 -5 -26
11 26 62 57 190 62 259 10 134 -35 241 -127 301 -37 25 -129 57 -139 48 -2 -2
4 -19 13 -39 21 -43 10 -68 -35 -84 -18 -6 -33 -10 -34 -9 -1 2 -12 36 -25 77
-49 154 -147 225 -267 190z m442 -1488 c51 -23 90 -53 106 -83 8 -14 1 -13
-39 7 -126 63 -377 54 -467 -17 l-29 -22 20 33 c28 48 86 84 169 105 51 12
191 -1 240 -23z m3 -196 c66 -20 142 -72 166 -115 l21 -35 -29 23 c-16 12 -61
32 -100 45 -59 18 -94 22 -211 22 -153 0 -227 -15 -298 -61 l-38 -25 15 30
c30 57 126 112 227 130 67 12 181 5 247 -14z m-30 -210 c83 -20 152 -56 190
-100 41 -46 41 -63 1 -34 -121 86 -455 91 -605 10 -30 -16 -54 -27 -54 -23 0
3 11 20 25 38 75 98 277 148 443 109z m-16 -216 c76 -16 154 -57 194 -101 41
-46 45 -67 7 -40 -139 95 -492 94 -619 -3 l-36 -27 16 29 c59 114 260 179 438
142z m28 -238 c69 -22 131 -61 155 -98 9 -14 15 -26 13 -28 -2 -2 -30 10 -63
26 -137 68 -397 60 -509 -16 -52 -35 -44 -9 13 46 37 35 66 53 113 68 83 26
197 27 278 2z m-928 -641 l528 0 0 -105 0 -105 -41 0 c-23 0 -67 7 -98 14 -31
8 -96 20 -146 26 -49 7 -118 18 -153 26 -63 14 -63 14 -124 -16 -56 -28 -158
-56 -233 -64 -41 -5 -96 -29 -148 -64 -23 -17 -59 -34 -80 -40 -20 -6 -60 -25
-88 -42 -28 -17 -56 -29 -62 -27 -8 2 -94 359 -96 401 -1 5 44 6 106 3 58 -4
344 -7 635 -7z m2187 -22 c0 -13 -14 -183 -32 -378 l-32 -355 -28 -13 c-47
-23 -168 -27 -223 -9 -27 9 -61 19 -76 22 -16 3 -29 14 -34 28 -4 12 -12 25
-18 29 -19 13 -63 9 -76 -7 -17 -21 -35 -19 -84 10 -24 14 -61 26 -82 28 -30
1 -43 8 -56 29 -19 29 -88 83 -119 93 -13 4 -32 -4 -58 -24 -21 -17 -43 -31
-48 -31 -20 0 -93 61 -108 89 -8 17 -15 48 -15 71 0 27 -7 47 -20 60 -19 19
-20 33 -20 200 l0 180 565 0 565 0 -1 -22z m-2950 -430 c1 -17 -10 -40 -29
-60 l-29 -33 0 185 1 185 28 -125 c16 -69 29 -137 29 -152z m3238 -305 c-4 -3
-22 5 -42 18 -33 23 -35 26 -35 85 0 33 -2 123 -5 200 l-5 139 47 -218 c25
-119 43 -220 40 -224z m-3417 307 c0 -60 -3 -110 -7 -110 -29 1 -32 17 -15
118 9 56 17 102 19 102 2 0 3 -49 3 -110z m3223 -81 l6 -187 -26 -5 c-24 -4
-25 -3 -19 37 3 22 11 110 17 193 7 84 13 152 14 150 1 -1 5 -86 8 -188z
m-4225 43 c53 -36 157 -61 186 -45 9 5 27 24 41 43 l25 34 -6 -32 c-9 -42 16
-89 64 -123 45 -31 114 -59 146 -59 32 0 99 -29 71 -31 -44 -3 -81 4 -107 19
-22 13 -30 14 -40 4 -8 -8 -45 -12 -104 -12 -51 0 -96 -4 -99 -10 -3 -5 -24
-14 -45 -20 -23 -6 -40 -17 -40 -25 0 -21 40 -44 89 -53 23 -4 43 -11 44 -17
4 -20 -91 -16 -160 6 -50 16 -99 23 -182 25 -62 1 -115 5 -117 7 -3 2 7 12 21
21 14 9 25 20 25 25 0 10 -92 31 -138 31 l-36 0 38 -39 c44 -45 38 -55 -36
-54 -61 1 -113 32 -121 73 -9 41 -44 48 -104 22 -43 -18 -49 -19 -90 -5 -23 8
-40 19 -37 24 9 15 69 37 121 45 26 3 62 12 78 19 46 18 145 113 145 139 0 19
5 21 54 21 37 -1 61 -6 74 -18 24 -22 63 -22 93 2 13 10 31 20 39 23 17 6 69
-13 108 -40z m2558 -327 c176 -31 329 -114 464 -249 79 -81 87 -96 24 -45 -56
44 -161 95 -246 119 -90 25 -255 27 -343 5 -83 -21 -209 -84 -276 -138 -144
-115 -249 -333 -249 -516 0 -251 156 -496 385 -606 118 -57 177 -70 310 -70
163 1 278 40 414 140 l65 48 -31 -39 c-228 -288 -643 -392 -995 -250 -167 68
-323 206 -416 368 -17 29 -46 96 -64 148 -32 92 -33 100 -33 255 0 140 3 169
23 235 132 419 539 669 968 595z m979 -555 c43 -58 81 -108 85 -113 3 -4 69
13 145 37 77 25 140 44 141 43 2 -1 -37 -56 -86 -121 l-89 -118 90 -119 c49
-65 87 -119 85 -119 -3 0 -60 18 -128 39 -68 21 -131 41 -140 43 -11 2 -43
-33 -105 -117 l-88 -120 -3 150 -2 151 -140 43 c-77 24 -138 47 -134 50 3 3
65 24 137 47 l132 41 3 153 c1 84 6 149 11 144 4 -5 43 -56 86 -114z m-2777
-1385 c78 -5 139 -28 183 -68 l27 -24 -6 -252 -5 -251 -273 0 c-223 0 -274 3
-274 13 0 8 14 81 30 162 17 81 30 150 30 151 0 2 13 1 29 -2 29 -6 30 -5 51
67 62 211 68 223 108 215 15 -4 60 -8 100 -11z m4181 -312 c35 -142 66 -264
69 -270 3 -10 -62 -13 -307 -13 l-311 0 0 169 0 168 40 7 c45 7 183 67 335
144 55 28 102 51 105 51 3 1 34 -115 69 -256z m-1016 107 c26 -28 57 -54 71
-60 14 -5 71 -12 127 -16 l102 -7 -7 -105 c-3 -58 -6 -127 -6 -154 l0 -48
-281 0 -281 0 6 28 c3 15 15 97 26 182 11 85 22 164 25 176 6 28 61 53 121 53
49 1 53 -1 97 -49z m-2698 -42 c9 -13 29 -44 45 -70 25 -40 37 -50 75 -60 47
-13 60 -28 24 -28 -31 0 -18 -22 27 -47 35 -20 49 -22 149 -18 61 3 117 6 125
6 8 1 36 1 61 1 l46 -2 7 -50 c4 -28 9 -57 12 -65 5 -13 -38 -15 -346 -15
l-353 0 6 83 c4 45 7 139 7 210 l0 127 49 -25 c28 -14 57 -35 66 -47z m1508
-170 c8 -275 9 -1554 2 -1546 -6 5 -45 1624 -42 1720 2 45 5 58 18 58 14 0 17
-29 22 -232z"/>
<path d="M7700 4004 c-104 -45 -143 -160 -84 -248 l26 -38 -30 -31 c-39 -40
-52 -75 -52 -136 0 -62 34 -127 87 -164 94 -67 243 -37 299 59 51 86 41 188
-22 244 l-36 31 20 22 c82 91 37 232 -86 267 -50 13 -80 12 -122 -6z m104
-120 c25 -24 20 -71 -9 -90 -23 -15 -27 -15 -50 0 -19 12 -25 25 -25 51 0 50
50 73 84 39z m13 -259 c42 -30 39 -108 -6 -142 -47 -36 -121 7 -121 70 0 72
71 111 127 72z"/>
<path d="M8216 4010 c-57 -18 -106 -85 -106 -145 0 -24 3 -25 54 -25 50 0 56
2 68 27 7 15 20 29 28 31 25 4 53 -23 53 -51 0 -36 -18 -55 -59 -63 -34 -6
-34 -7 -34 -59 l0 -52 46 -6 c63 -7 87 -33 87 -91 0 -50 -20 -81 -62 -98 -48
-18 -101 25 -101 83 0 18 -6 20 -62 17 l-63 -3 3 -43 c5 -81 49 -143 119 -168
125 -44 253 23 284 148 20 85 -9 177 -65 207 l-24 13 24 36 c48 70 26 170 -47
225 -31 22 -100 31 -143 17z"/>
<path d="M8720 4011 c-83 -27 -137 -83 -160 -167 -17 -60 -2 -141 36 -195 29
-43 94 -79 142 -79 l31 0 -64 -100 c-36 -55 -65 -102 -65 -105 0 -3 29 -5 65
-5 l66 0 86 133 c114 174 137 225 137 304 0 78 -37 144 -104 185 -48 29 -128
43 -170 29z m101 -131 c25 -14 49 -62 49 -98 0 -16 -10 -41 -21 -56 -63 -81
-169 -37 -169 69 0 70 80 117 141 85z"/>
<path d="M7120 3950 l0 -50 50 0 50 0 2 -267 3 -268 63 -3 62 -3 0 321 0 320
-115 0 -115 0 0 -50z"/>
<path d="M6363 3794 c-23 -23 -25 -31 -21 -88 l4 -63 -27 11 c-18 6 -41 7 -66
0 -32 -7 -39 -14 -41 -37 -2 -18 6 -43 22 -67 23 -34 23 -37 5 -33 -26 7 -69
-23 -69 -48 0 -12 17 -39 39 -60 29 -29 34 -39 21 -39 -26 0 -43 -25 -35 -51
4 -12 28 -44 53 -71 l45 -48 -35 0 c-48 0 -73 -20 -64 -53 4 -19 22 -34 66
-55 48 -24 56 -31 38 -34 -29 -4 -36 -43 -12 -69 10 -11 56 -31 103 -46 53
-17 93 -35 103 -48 17 -22 110 -54 159 -56 l24 0 -22 -9 c-13 -5 -23 -18 -23
-29 0 -44 77 -65 280 -76 63 -4 156 -16 205 -28 64 -16 122 -22 203 -22 94 0
113 -3 117 -16 13 -41 122 -50 300 -24 145 21 211 19 242 -5 35 -27 116 -27
161 0 40 24 107 26 242 5 171 -26 300 -14 300 28 0 9 31 12 113 12 79 0 140 7
207 22 52 12 165 27 250 33 176 12 223 27 228 73 3 20 -1 27 -15 28 -10 0 14
9 54 19 85 22 113 36 113 54 0 9 26 20 70 31 88 22 134 51 138 89 3 21 -1 29
-18 33 -18 5 -12 11 37 38 41 23 59 39 61 55 5 30 -21 50 -66 50 l-35 0 52 54
c28 30 51 63 51 73 0 24 -19 43 -42 43 -13 0 -8 9 22 36 25 23 40 45 40 60 0
28 -41 59 -70 51 -18 -5 -17 -2 5 31 30 44 33 87 6 102 -24 12 -77 13 -99 1
-15 -8 -17 -2 -14 57 4 77 -7 99 -54 108 -24 4 -37 0 -58 -18 -24 -20 -29 -33
-33 -90 -6 -65 -6 -66 -27 -53 -33 21 -82 28 -107 15 -18 -10 -20 -18 -16 -48
3 -21 9 -46 12 -58 6 -19 2 -22 -35 -27 -53 -7 -73 -24 -65 -55 4 -17 -2 -32
-25 -59 -18 -19 -36 -46 -42 -59 -13 -27 -28 -32 -28 -9 0 22 -62 49 -95 41
-18 -5 -32 -19 -45 -49 -11 -23 -20 -49 -20 -57 0 -12 -11 -14 -54 -12 -64 4
-96 -18 -96 -68 0 -20 -5 -30 -15 -30 -30 0 -71 -29 -99 -68 -26 -38 -29 -39
-60 -30 -50 16 -105 2 -123 -30 -9 -15 -42 -42 -75 -60 -55 -30 -61 -31 -81
-17 -29 20 -97 19 -127 -2 -14 -9 -42 -31 -63 -50 -34 -30 -43 -33 -103 -33
-54 0 -69 4 -82 21 -36 43 -158 43 -194 -1 -13 -16 -28 -20 -82 -20 -63 0 -69
2 -109 39 -23 21 -52 43 -64 50 -34 17 -100 14 -120 -7 -17 -17 -20 -16 -73
15 -30 18 -58 36 -62 40 -46 54 -59 63 -92 63 -19 0 -46 -4 -60 -10 -22 -8
-27 -5 -46 25 -26 41 -70 75 -99 75 -17 0 -21 6 -21 30 0 50 -32 72 -96 68
-47 -3 -54 -1 -54 15 0 34 -39 96 -65 103 -36 9 -84 -14 -91 -43 -6 -24 -7
-23 -32 14 -13 21 -36 50 -49 64 -18 19 -22 33 -18 51 8 31 -12 48 -65 55 -33
5 -40 9 -34 22 3 9 8 35 11 58 5 35 2 43 -16 53 -25 13 -74 5 -107 -17 -21
-14 -22 -13 -26 53 -4 58 -8 70 -32 90 -35 31 -61 30 -93 -2z m297 -469 c11
-13 10 -14 -4 -9 -9 3 -16 10 -16 15 0 13 6 11 20 -6z m2810 6 c0 -5 -7 -12
-16 -15 -14 -5 -15 -4 -4 9 14 17 20 19 20 6z"/>
<path d="M1022 7527 c-33 -35 -45 -118 -32 -221 11 -87 41 -198 67 -250 8 -15
11 -26 6 -24 -4 3 -47 28 -95 57 -112 67 -147 73 -177 35 -48 -60 -7 -168 107
-283 41 -41 66 -71 55 -67 -10 4 -47 14 -82 22 -173 40 -220 -47 -102 -192 25
-32 78 -82 116 -111 67 -51 281 -165 336 -178 25 -6 26 -9 26 -78 0 -104 50
-259 114 -354 15 -24 25 -43 21 -43 -5 0 -46 15 -93 34 -120 48 -140 51 -172
26 -71 -56 7 -200 162 -298 l60 -37 -102 3 c-93 4 -105 2 -129 -18 -80 -62 21
-193 222 -289 81 -39 310 -111 351 -111 15 0 19 -7 19 -33 0 -85 77 -238 170
-341 58 -62 57 -63 -57 -41 -144 28 -183 16 -183 -57 0 -72 99 -162 232 -212
l63 -24 -50 -7 c-133 -17 -195 -46 -195 -92 0 -33 39 -82 92 -117 105 -70 255
-108 478 -122 l106 -6 17 -58 c22 -77 99 -189 186 -273 60 -59 67 -68 43 -63
-15 3 -70 8 -122 12 -88 5 -97 4 -122 -16 -38 -29 -36 -67 5 -121 38 -50 146
-113 225 -130 28 -7 52 -15 52 -19 0 -4 -19 -10 -42 -13 -111 -16 -178 -56
-178 -106 0 -32 47 -84 100 -111 113 -57 303 -86 491 -75 l106 7 28 -59 c36
-72 166 -203 253 -254 l63 -37 -43 -6 c-24 -3 -72 -8 -108 -12 -136 -14 -169
-70 -87 -149 51 -48 136 -80 245 -91 l73 -7 -64 -27 c-85 -36 -121 -62 -137
-100 -11 -25 -10 -34 5 -56 25 -38 107 -71 211 -85 77 -10 108 -10 206 5 64 9
157 26 207 39 81 21 91 21 96 7 18 -56 212 -191 324 -226 34 -10 61 -22 61
-25 0 -3 -41 -18 -92 -35 -108 -34 -148 -63 -148 -105 0 -84 155 -133 340
-106 l55 8 -35 -22 c-181 -111 -191 -212 -25 -239 122 -20 280 18 485 116
l115 55 15 -22 c39 -59 228 -149 360 -170 l72 -12 -94 -48 c-99 -51 -138 -86
-138 -123 0 -20 26 -52 57 -70 55 -31 204 -24 308 15 l50 19 -52 -48 c-102
-92 -128 -161 -75 -202 25 -20 35 -22 122 -17 144 7 295 73 471 204 l70 52 20
-20 c54 -54 214 -106 357 -117 l85 -7 -96 -68 c-52 -37 -98 -74 -101 -83 -12
-32 -5 -61 20 -85 21 -20 38 -24 102 -27 84 -4 166 17 250 63 l43 24 -46 -51
c-57 -64 -85 -116 -85 -161 0 -50 25 -67 97 -67 131 0 280 79 471 248 l82 73
0 -119 c0 -78 4 -122 12 -130 15 -15 124 -16 133 -2 5 8 11 7 21 0 8 -7 38
-10 73 -8 l60 3 6 -43 c12 -80 91 -155 179 -169 106 -17 235 85 236 187 0 24
2 25 60 22 36 -2 66 1 74 8 10 7 16 8 21 0 3 -5 33 -10 65 -10 76 0 80 7 80
150 l0 112 66 -61 c132 -124 283 -221 389 -250 59 -16 147 -14 173 5 44 31 21
109 -61 208 l-41 48 50 -25 c158 -80 339 -76 360 9 9 37 -17 68 -119 140 l-87
61 93 6 c142 9 302 62 350 115 18 20 19 19 128 -54 198 -134 323 -184 461
-184 70 0 82 3 103 25 43 42 30 81 -58 173 -34 36 -54 62 -44 59 122 -44 258
-53 323 -21 21 11 46 31 54 47 25 45 0 73 -118 138 l-102 55 66 13 c140 25
261 79 333 146 l46 43 100 -49 c200 -96 377 -139 499 -119 74 12 110 36 114
78 4 37 -44 95 -123 149 l-50 34 40 -7 c61 -12 195 -9 244 5 51 15 111 69 111
100 0 37 -41 66 -143 101 -53 18 -97 36 -97 40 0 4 19 12 43 19 118 35 298
155 332 221 l14 27 84 -22 c133 -36 308 -58 391 -50 212 21 302 102 207 188
-33 30 -127 75 -164 78 -7 1 33 7 88 15 192 26 317 124 253 199 -21 24 -36 29
-128 41 -58 7 -114 14 -125 14 -18 1 -18 2 3 10 108 44 296 229 317 312 l6 24
192 1 c209 1 294 15 404 69 58 28 113 84 113 115 0 47 -116 109 -203 109 -44
0 -31 14 25 28 197 46 334 205 227 263 -19 10 -197 5 -240 -7 -9 -2 21 33 65
79 88 90 148 183 171 262 l15 51 146 12 c182 15 268 34 369 82 127 60 183 126
150 176 -23 35 -65 53 -152 65 -74 10 -106 19 -69 19 36 0 167 70 214 114 79
74 95 145 40 175 -27 15 -47 14 -228 -16 l-35 -6 40 44 c90 98 171 248 182
336 l6 51 58 11 c93 19 265 78 342 118 76 40 179 129 203 174 22 43 18 75 -13
99 -26 20 -37 22 -134 18 l-105 -3 58 35 c120 70 215 203 192 268 -5 15 -22
33 -37 40 -31 15 -49 11 -178 -40 l-86 -35 34 51 c36 54 86 176 102 247 6 24
11 74 11 112 0 49 4 67 13 67 28 0 299 142 354 186 106 84 173 175 173 233 0
45 -8 57 -45 71 -35 13 -106 5 -184 -21 l-56 -19 35 27 c147 113 229 289 161
344 -13 10 -33 19 -45 19 -12 0 -67 -27 -122 -59 -54 -32 -100 -58 -101 -57
-1 1 9 30 23 65 58 144 73 358 28 418 -27 36 -71 41 -107 12 -64 -49 -125
-228 -129 -375 -2 -46 -4 -84 -5 -84 -1 0 -25 33 -54 73 -78 108 -98 127 -135
127 -96 0 -109 -171 -27 -343 l34 -72 -33 32 c-84 79 -186 116 -217 79 -71
-85 47 -348 260 -581 l51 -55 -37 -41 c-62 -69 -118 -200 -150 -354 -6 -28
-10 -23 -63 80 -45 86 -63 112 -84 119 -108 37 -155 -179 -82 -379 4 -11 -19
8 -52 42 -32 34 -76 69 -97 78 -35 15 -41 15 -63 1 -50 -33 -55 -147 -12 -284
22 -75 99 -229 159 -322 21 -33 39 -64 39 -68 0 -4 -16 -18 -36 -31 -52 -36
-141 -153 -185 -245 -22 -44 -39 -87 -39 -95 -1 -31 -17 12 -40 107 -27 110
-48 142 -95 142 -25 0 -40 -8 -64 -35 -46 -52 -63 -127 -59 -249 l3 -103 -33
59 c-85 149 -165 169 -208 51 -18 -51 -17 -201 1 -288 15 -72 88 -299 104
-324 7 -11 0 -19 -28 -33 -75 -37 -208 -189 -257 -293 -13 -27 -24 -48 -24
-45 0 3 -9 56 -20 119 -25 146 -53 180 -120 146 -65 -34 -112 -152 -114 -291
l-1 -81 -20 46 c-49 112 -91 161 -135 161 -99 0 -135 -238 -76 -507 15 -67 33
-140 41 -162 13 -38 13 -41 -3 -41 -59 0 -242 -131 -315 -225 l-42 -55 -5 127
c-5 121 -6 127 -31 145 -35 26 -71 16 -121 -34 -48 -48 -82 -119 -104 -217
l-17 -74 -18 73 c-22 87 -46 129 -82 150 -24 13 -28 13 -54 -6 -96 -71 -145
-278 -127 -541 l9 -133 -45 -6 c-97 -14 -257 -93 -338 -168 -32 -30 -43 -35
-39 -21 66 221 61 291 -20 289 -80 -2 -161 -82 -228 -226 l-34 -73 -1 80 c0
44 -5 97 -11 118 -12 45 -48 72 -84 63 -59 -15 -149 -146 -193 -282 -11 -33
-30 -118 -42 -190 -12 -71 -24 -139 -26 -151 -4 -21 -10 -23 -66 -23 -34 0
-91 -7 -127 -16 -72 -18 -224 -84 -254 -112 -19 -17 -19 -16 -2 23 52 123 75
186 75 208 0 29 -42 67 -74 67 -66 0 -187 -96 -256 -205 -23 -35 -31 -42 -26
-24 3 14 8 57 11 95 19 214 -145 182 -285 -56 -37 -62 -110 -244 -136 -337
l-17 -61 -30 10 c-69 25 -298 -12 -399 -63 -22 -11 -38 -17 -36 -12 3 4 28 47
56 94 67 112 73 139 37 175 -24 24 -32 26 -77 21 -68 -8 -146 -56 -221 -137
-33 -36 -58 -57 -54 -48 18 50 29 107 29 155 1 123 -89 123 -219 0 -74 -69
-115 -128 -184 -260 l-59 -112 0 126 c0 99 -3 129 -15 139 -9 7 -41 11 -82 10
-37 -1 -97 -2 -133 -1 l-66 1 -12 47 c-23 84 -114 153 -202 153 -87 0 -180
-72 -201 -154 l-11 -46 -62 0 c-34 0 -67 -5 -73 -11 -8 -8 -13 -8 -17 0 -10
15 -119 14 -134 -1 -8 -8 -12 -53 -12 -138 l0 -125 -64 117 c-71 132 -128 210
-195 270 -50 44 -113 77 -148 78 -29 0 -63 -45 -63 -84 0 -30 21 -131 36 -171
4 -11 -12 3 -36 32 -78 95 -168 153 -250 161 -39 3 -52 0 -69 -17 -33 -33 -26
-68 38 -178 l59 -101 -52 23 c-94 41 -184 59 -305 60 l-113 2 -40 119 c-72
220 -162 371 -259 436 -71 48 -121 33 -135 -38 -7 -36 1 -148 12 -181 4 -10
-11 7 -31 37 -84 124 -174 192 -252 194 -86 2 -94 -50 -29 -201 43 -101 43
-102 17 -84 -96 67 -275 125 -376 119 l-65 -3 0 30 c0 98 -59 345 -107 444
-42 88 -126 181 -165 181 -49 0 -76 -52 -85 -160 l-6 -80 -34 69 c-84 175
-245 267 -284 164 -8 -22 -5 -49 15 -130 14 -56 26 -107 26 -113 0 -6 -25 10
-55 35 -70 57 -222 130 -300 145 l-60 12 3 186 c4 208 -7 288 -54 393 -27 59
-72 109 -99 109 -34 0 -75 -52 -96 -123 -11 -40 -23 -79 -26 -87 -3 -8 -11 14
-19 49 -44 207 -199 347 -250 224 -12 -29 -14 -59 -9 -147 l7 -111 -32 43
c-71 97 -204 203 -297 238 -27 10 -49 18 -50 19 -1 0 5 23 13 50 97 315 81
642 -32 653 -45 4 -79 -28 -124 -121 l-40 -82 0 80 c0 141 -47 257 -115 289
-33 16 -38 16 -60 2 -35 -23 -41 -39 -60 -159 l-18 -108 -32 59 c-63 118 -174
243 -247 278 l-35 16 48 138 c74 213 94 350 68 469 -31 144 -123 132 -215 -27
l-29 -50 0 116 c0 101 -4 124 -24 170 -56 124 -149 123 -182 -2 -5 -22 -18
-70 -28 -105 l-17 -64 -23 61 c-33 88 -111 201 -185 269 l-64 58 25 35 c51 74
136 235 165 313 38 102 51 261 25 300 -36 55 -104 32 -189 -62 l-56 -63 21 64
c29 90 30 239 1 288 -11 19 -32 42 -47 50 -46 26 -74 1 -139 -125 -55 -107
-57 -109 -58 -70 0 49 -56 215 -94 279 -15 26 -41 62 -58 82 l-30 34 54 63
c153 174 238 316 264 436 11 57 12 76 1 108 -11 34 -16 38 -49 41 -43 4 -102
-24 -157 -73 -48 -44 -56 -44 -31 -2 34 58 62 160 63 228 2 105 -37 153 -108
135 -15 -4 -49 -42 -92 -102 l-68 -97 -6 94 c-10 156 -67 322 -127 370 -33 26
-74 24 -100 -4z m123 -330 c13 -53 32 -139 41 -192 l17 -95 83 80 c83 79 104
93 104 67 0 -19 -69 -122 -124 -185 -25 -30 -46 -59 -46 -65 0 -7 12 -68 25
-137 14 -69 25 -127 25 -128 0 -2 35 29 78 68 202 189 224 135 27 -67 l-100
-102 -165 82 c-153 76 -192 106 -130 99 14 -2 73 -23 133 -47 59 -23 107 -42
107 -40 0 4 -29 163 -41 223 -10 51 -12 53 -71 83 -118 59 -192 118 -174 136
6 6 95 -23 165 -54 30 -13 55 -22 57 -20 2 2 -12 79 -31 173 -35 170 -41 215
-28 227 13 14 23 -10 48 -106z m13800 49 c-4 -28 -20 -116 -37 -194 -16 -79
-28 -145 -26 -147 2 -1 39 12 84 30 95 38 144 51 144 37 0 -19 -78 -77 -157
-117 -43 -22 -80 -41 -82 -43 -5 -2 -50 -238 -51 -264 0 -15 7 -14 58 9 83 37
161 63 190 63 20 0 22 -2 12 -15 -11 -13 -188 -103 -287 -146 l-42 -18 -96
106 c-99 109 -148 183 -122 183 18 0 53 -27 152 -117 l80 -73 27 136 28 137
-44 51 c-105 123 -159 224 -104 195 12 -6 52 -43 90 -81 62 -63 68 -67 73 -46
3 13 18 87 34 165 17 77 37 158 45 178 22 52 39 36 31 -29z m-13533 -1173 c10
-16 44 -98 77 -182 l59 -153 41 61 c81 119 131 161 112 93 -9 -31 -68 -148
-104 -206 l-24 -38 45 -122 c24 -66 48 -124 51 -128 4 -5 44 39 89 96 76 96
107 124 120 112 10 -11 -34 -97 -105 -204 -56 -84 -79 -112 -91 -108 -9 3 -60
17 -112 31 -139 38 -223 69 -228 85 -6 17 79 8 191 -21 44 -11 81 -18 83 -16
2 2 -17 63 -43 135 l-47 131 -45 11 c-71 18 -187 69 -206 90 -18 20 -17 20 21
20 21 0 75 -9 119 -19 44 -11 82 -18 84 -16 2 2 -17 55 -42 117 -54 134 -87
231 -87 254 0 23 22 12 42 -23z m13252 5 c-4 -18 -34 -104 -67 -191 -33 -87
-58 -159 -56 -162 2 -2 40 5 84 16 204 49 185 -10 -26 -77 -48 -15 -90 -33
-92 -39 -39 -102 -88 -247 -86 -250 3 -2 40 5 84 15 165 39 253 36 153 -5 -58
-24 -311 -94 -319 -89 -4 2 -34 43 -66 91 -90 131 -133 223 -104 223 13 0 113
-112 153 -171 18 -27 36 -49 39 -49 4 0 28 57 54 127 l48 127 -18 31 c-42 69
-115 220 -115 237 0 34 33 4 98 -87 l62 -87 11 28 c6 16 28 74 49 129 53 141
89 215 105 215 11 0 13 -8 9 -32z m-12766 -1122 c16 -19 67 -93 112 -165 45
-72 84 -131 86 -131 1 0 25 48 53 106 80 168 96 110 26 -98 l-34 -99 71 -115
c38 -63 73 -114 77 -114 4 0 29 45 56 100 81 165 125 200 92 73 -16 -63 -91
-251 -105 -264 -8 -7 -301 15 -345 26 -15 4 -27 11 -27 16 0 15 67 21 175 17
58 -2 105 -2 105 0 0 2 -32 57 -71 123 -64 106 -75 119 -99 119 -50 0 -201 30
-233 47 -29 15 -30 17 -12 24 11 4 66 8 123 8 56 1 102 3 102 5 0 2 -34 57
-76 123 -77 120 -124 204 -124 223 0 19 18 10 48 -24z m12257 -46 c-14 -28
-59 -103 -100 -166 l-74 -114 107 0 c110 0 151 -10 122 -30 -25 -17 -80 -30
-178 -42 l-93 -11 -64 -107 c-36 -59 -67 -113 -70 -121 -4 -12 13 -13 101 -11
109 4 174 -3 174 -17 0 -5 -12 -12 -27 -16 -24 -6 -347 -35 -349 -32 0 1 -15
36 -33 77 -67 151 -98 270 -72 270 13 0 72 -100 113 -189 l34 -75 75 122 75
121 -38 113 c-21 62 -38 131 -38 152 0 38 1 39 19 22 11 -10 37 -58 58 -107
20 -49 40 -89 43 -89 3 0 44 62 92 138 96 152 141 207 146 180 2 -9 -9 -40
-23 -68z m-11563 -987 c24 -27 82 -97 128 -157 l84 -109 26 79 c37 108 59 149
73 135 10 -10 -2 -96 -35 -247 l-11 -51 83 -107 c45 -59 86 -104 90 -99 4 4
17 37 29 73 33 93 80 190 93 190 20 0 1 -121 -38 -243 l-38 -117 -187 0 c-108
0 -190 4 -194 10 -9 14 59 29 178 37 l108 8 -81 111 -81 111 -107 6 c-148 9
-217 31 -164 52 9 4 59 9 110 12 51 3 95 9 97 13 3 4 -30 52 -74 106 -128 162
-172 234 -142 234 4 0 28 -21 53 -47z m10918 42 c0 -24 -98 -165 -197 -282
-51 -61 -55 -58 82 -67 85 -5 115 -12 115 -27 0 -15 -73 -29 -183 -36 l-107
-6 -80 -107 c-44 -59 -80 -109 -80 -112 0 -3 46 -8 103 -11 111 -7 181 -23
172 -38 -4 -5 -85 -9 -190 -9 l-184 0 -35 108 c-73 226 -67 334 9 168 18 -39
41 -97 51 -128 10 -32 21 -58 25 -58 4 0 44 49 89 110 l82 109 -21 83 c-27
104 -38 218 -23 218 15 0 34 -39 66 -137 15 -46 29 -83 30 -83 2 0 42 51 89
113 97 128 159 197 175 197 7 0 12 -2 12 -5z m-9990 -1085 l125 -109 16 108
c18 120 25 139 43 121 7 -7 11 -61 11 -156 l0 -146 100 -88 c55 -49 102 -90
105 -90 3 0 13 46 22 103 18 112 38 178 53 180 16 3 18 -126 5 -249 l-12 -111
-154 -32 c-84 -18 -170 -31 -191 -29 l-38 4 45 21 c25 12 86 32 135 44 50 12
92 24 94 25 4 3 -47 52 -165 157 l-41 37 -77 -15 c-102 -20 -206 -20 -206 -1
0 12 46 29 199 75 22 6 15 14 -80 96 -129 111 -189 172 -189 192 0 25 66 -20
200 -137z m9191 123 c-13 -23 -107 -114 -201 -193 -41 -35 -76 -67 -78 -71 -2
-4 16 -13 40 -19 137 -36 183 -54 173 -71 -9 -14 -113 -11 -201 6 -62 12 -81
12 -93 2 -34 -26 -191 -172 -191 -177 0 -3 41 -16 92 -29 51 -13 113 -33 138
-44 l45 -21 -44 -4 c-33 -2 -324 52 -339 63 -10 8 -33 267 -27 312 12 101 40
47 71 -137 9 -52 18 -97 20 -99 2 -2 49 38 105 88 l102 92 -2 127 c-2 132 10
205 30 170 8 -14 39 -190 39 -222 0 -4 35 23 78 61 130 117 215 183 234 183
15 0 17 -4 9 -17z m-8032 -757 c11 -35 25 -99 32 -143 l12 -79 115 -64 c64
-36 120 -67 125 -69 5 -2 6 39 2 103 -7 107 -1 196 15 196 17 0 41 -101 55
-226 8 -70 13 -130 10 -132 -14 -14 -295 -135 -325 -139 l-35 -6 19 21 c10 12
68 47 129 78 l109 56 -93 55 c-161 94 -142 91 -246 49 -94 -37 -183 -56 -183
-39 0 16 30 38 118 86 l83 44 -108 58 c-186 99 -278 165 -230 165 18 0 176
-78 277 -135 44 -26 82 -46 84 -44 1 2 -2 50 -7 106 -14 150 5 177 42 59z
m6723 50 c3 -14 2 -67 -3 -118 -4 -51 -6 -94 -4 -96 1 -2 60 29 130 68 124 70
207 110 226 110 5 0 9 -6 9 -14 0 -17 -45 -47 -200 -131 -69 -37 -129 -71
-134 -75 -5 -5 25 -25 65 -46 87 -43 129 -71 129 -86 0 -18 -86 -1 -180 37
-48 19 -92 35 -98 35 -9 0 -228 -123 -241 -135 -1 -2 34 -22 80 -45 143 -72
202 -121 127 -106 -31 6 -295 122 -311 136 -12 11 11 232 31 298 31 99 41 79
44 -87 l3 -150 120 67 119 67 12 78 c14 91 51 217 63 217 5 0 11 -11 13 -24z
m-5630 -547 c14 -30 39 -90 53 -135 l27 -80 127 -47 c70 -26 130 -47 133 -47
3 0 -6 51 -18 113 -36 172 -29 236 16 147 19 -38 90 -271 90 -296 0 -7 -59
-51 -130 -98 -141 -94 -176 -113 -187 -102 -10 10 52 69 134 128 40 29 69 55
65 59 -4 4 -62 28 -129 53 l-122 47 -56 -37 c-103 -65 -205 -103 -205 -76 0
12 46 53 119 106 38 28 58 48 50 51 -8 2 -66 23 -131 45 -186 63 -255 98 -229
114 12 8 151 -33 269 -78 52 -20 99 -36 106 -36 9 0 6 24 -10 88 -39 149 -26
188 28 81z m4548 44 c0 -20 -35 -168 -46 -197 -9 -25 1 -22 181 42 147 52 197
64 205 47 7 -14 -52 -41 -216 -100 -77 -27 -142 -53 -145 -56 -2 -3 34 -35 80
-70 46 -35 86 -70 89 -77 11 -35 -118 13 -214 79 l-45 31 -125 -48 c-69 -26
-127 -51 -129 -55 -3 -4 32 -34 78 -67 89 -65 134 -108 124 -118 -11 -12 -60
15 -194 104 l-131 87 34 123 c35 127 72 215 89 214 18 -2 16 -38 -9 -163 -14
-68 -23 -125 -22 -127 2 -2 62 18 132 45 128 48 129 48 142 88 25 78 62 170
82 203 22 35 40 42 40 15z m-3333 -490 l49 -97 120 -27 c65 -16 126 -28 134
-29 13 0 9 22 -23 115 -22 66 -37 130 -35 148 l3 32 32 -43 c29 -39 57 -99
112 -239 l20 -51 -96 -84 c-102 -88 -181 -148 -195 -148 -22 0 0 31 87 119
l95 97 -135 33 -135 33 -64 -51 c-101 -81 -186 -123 -186 -92 0 5 37 46 81 90
75 74 80 80 58 85 -13 3 -87 20 -164 37 -153 34 -205 52 -205 70 0 16 76 6
251 -32 77 -17 142 -29 144 -27 2 2 -11 44 -30 93 -19 50 -34 101 -34 115 0
24 1 24 33 -13 19 -21 56 -81 83 -134z m2183 153 c0 -8 -14 -52 -31 -98 -47
-130 -47 -122 -13 -115 324 70 379 78 372 55 -6 -18 -84 -42 -234 -73 -71 -14
-135 -28 -143 -31 -9 -3 14 -33 68 -89 81 -82 96 -114 46 -95 -36 14 -96 53
-160 105 l-57 47 -131 -33 c-73 -17 -133 -33 -135 -35 -2 -1 32 -36 75 -77 82
-79 125 -137 101 -137 -15 0 -138 97 -231 182 l-59 53 42 105 c43 108 104 220
121 220 18 0 8 -57 -30 -170 -21 -63 -37 -117 -35 -119 2 -2 63 9 135 25 l131
29 45 90 c70 138 123 208 123 161z"/>
</g>
</svg>
